<?xml version="1.0" standalone="no"?><svg xmlns="http://www.w3.org/2000/svg" viewBox="0 0 1440 320"><path fill="#0099ff" fill-opacity="1" d="M0,96L12.6,128C25.3,160,51,224,76,245.3C101.1,267,126,245,152,229.3C176.8,213,202,203,227,202.7C252.6,203,278,213,303,208C328.4,203,354,181,379,176C404.2,171,429,181,455,202.7C480,224,505,256,531,245.3C555.8,235,581,181,606,165.3C631.6,149,657,171,682,165.3C707.4,160,733,128,758,122.7C783.2,117,808,139,834,144C858.9,149,884,139,909,138.7C934.7,139,960,149,985,176C1010.5,203,1036,245,1061,272C1086.3,299,1112,309,1137,293.3C1162.1,277,1187,235,1213,186.7C1237.9,139,1263,85,1288,69.3C1313.7,53,1339,75,1364,117.3C1389.5,160,1415,224,1427,256L1440,288L1440,0L1427.4,0C1414.7,0,1389,0,1364,0C1338.9,0,1314,0,1288,0C1263.2,0,1238,0,1213,0C1187.4,0,1162,0,1137,0C1111.6,0,1086,0,1061,0C1035.8,0,1011,0,985,0C960,0,935,0,909,0C884.2,0,859,0,834,0C808.4,0,783,0,758,0C732.6,0,707,0,682,0C656.8,0,632,0,606,0C581.1,0,556,0,531,0C505.3,0,480,0,455,0C429.5,0,404,0,379,0C353.7,0,328,0,303,0C277.9,0,253,0,227,0C202.1,0,177,0,152,0C126.3,0,101,0,76,0C50.5,0,25,0,13,0L0,0Z"></path></svg>